<?xml version="1.0" standalone="no"?>
<!DOCTYPE svg PUBLIC "-//W3C//DTD SVG 20010904//EN"
 "http://www.w3.org/TR/2001/REC-SVG-20010904/DTD/svg10.dtd">
<svg version="1.0" xmlns="http://www.w3.org/2000/svg"
 width="480.000000pt" height="480.000000pt" viewBox="0 0 480.000000 480.000000"
 preserveAspectRatio="xMidYMid meet">

<g transform="translate(0.000000,480.000000) scale(0.100000,-0.100000)"
fill="#000000" stroke="none">
<path d="M2135 4764 c-900 -110 -1625 -663 -1954 -1491 -171 -432 -209 -935
-105 -1403 74 -332 247 -691 463 -960 70 -87 259 -279 348 -351 560 -459 1310
-640 2023 -488 543 116 1064 448 1395 891 707 943 632 2248 -178 3084 -297
307 -611 502 -1019 633 -271 86 -675 122 -973 85z m565 -15 c145 -16 288 -49
460 -105 491 -159 926 -493 1225 -939 88 -132 214 -390 265 -545 90 -270 121
-465 122 -755 0 -294 -28 -472 -119 -749 -252 -767 -878 -1349 -1668 -1551
-215 -55 -331 -69 -580 -69 -160 0 -252 5 -335 17 -525 81 -993 318 -1356 689
-132 134 -192 208 -286 348 -215 322 -356 722 -389 1106 -14 153 -6 416 16
559 67 431 254 839 540 1180 362 430 865 709 1453 805 175 29 446 32 652 9z"/>
<path d="M2205 4033 c-42 -5 -228 -44 -237 -49 -4 -3 -5 -11 -2 -18 4 -12 13
-12 56 0 48 12 128 25 240 39 35 5 46 10 41 21 -5 14 -31 16 -98 7z"/>
<path d="M2380 4028 c0 -12 21 -16 103 -22 56 -4 133 -13 170 -20 63 -12 93
-7 71 13 -16 14 -127 32 -236 38 -92 5 -108 4 -108 -9z"/>
<path d="M2805 3969 c-9 -14 -13 -12 100 -54 55 -21 122 -48 149 -62 44 -22
85 -25 72 -5 -9 15 -134 72 -223 103 -101 34 -90 32 -98 18z"/>
<path d="M1783 3920 c-95 -38 -203 -101 -203 -117 0 -20 11 -16 101 31 46 24
112 54 147 67 34 13 62 30 62 36 0 20 -28 15 -107 -17z"/>
<path d="M2178 3830 c-10 -6 -14 -18 -11 -30 4 -17 0 -20 -23 -20 -32 -1 -143
-26 -152 -34 -3 -3 4 -6 16 -6 12 0 22 -4 22 -10 0 -23 40 -50 65 -44 15 4 25
2 25 -5 0 -6 6 -11 14 -11 11 0 12 8 3 41 -8 33 -7 43 4 50 27 17 38 9 46 -33
5 -23 14 -43 21 -46 9 -3 11 3 8 20 -15 66 -13 73 22 76 24 2 32 -1 32 -12 0
-9 -8 -16 -17 -16 -13 0 -10 -7 12 -30 16 -16 34 -30 39 -30 6 0 4 6 -4 13 -9
7 -14 24 -12 44 3 30 5 31 62 38 59 7 80 3 80 -16 0 -5 -17 -7 -40 -3 -31 5
-41 3 -46 -10 -10 -25 15 -46 52 -46 19 0 34 -4 34 -10 0 -5 5 -10 10 -10 6 0
10 20 10 45 l0 45 55 0 c30 0 55 -4 55 -10 0 -5 -13 -10 -28 -10 -25 0 -28 -4
-29 -35 -1 -21 5 -39 16 -47 14 -12 14 -11 3 4 -18 22 -7 38 25 38 21 0 23 -3
14 -14 -8 -10 -9 -16 -1 -21 12 -8 25 20 15 35 -3 5 -17 10 -31 10 -13 0 -24
5 -24 11 0 7 11 9 29 6 21 -4 31 -2 35 9 4 12 14 14 38 9 58 -12 68 -16 68
-31 0 -11 -9 -13 -41 -8 -33 6 -41 4 -37 -7 3 -8 18 -14 34 -14 22 0 29 -5 29
-19 0 -32 23 -29 30 4 4 16 14 37 22 46 8 8 13 17 11 20 -3 2 -41 12 -84 21
-55 11 -139 17 -272 18 -105 1 -194 4 -197 7 -3 3 2 11 11 18 12 11 22 11 47
2 29 -10 30 -10 13 3 -23 17 -53 19 -78 5z m232 -80 c13 -9 13 -11 0 -20 -19
-13 -52 -9 -57 7 -3 9 7 16 37 22 3 0 12 -4 20 -9z m-306 -15 c3 -8 -2 -22
-11 -31 -15 -15 -18 -15 -30 2 -7 10 -13 24 -13 31 0 18 47 16 54 -2z"/>
<path d="M3191 3796 c-9 -10 5 -24 56 -58 38 -25 98 -71 135 -102 59 -51 88
-63 88 -37 0 10 -164 144 -222 180 -37 24 -49 27 -57 17z"/>
<path d="M1470 3743 c-83 -64 -191 -158 -205 -180 -36 -54 2 -39 83 35 70 62
136 117 170 138 2 2 0 9 -5 18 -7 13 -13 11 -43 -11z"/>
<path d="M2810 3731 c0 -5 7 -11 15 -15 19 -7 19 -21 -1 -40 -16 -17 -10 -40
9 -33 20 7 47 -12 47 -33 0 -32 16 -23 35 20 10 22 22 40 27 40 14 0 90 -41
85 -46 -2 -2 -16 0 -31 5 -25 10 -30 7 -27 -13 1 -4 -5 -13 -14 -20 -11 -7
-14 -18 -9 -30 7 -18 8 -18 15 2 5 12 15 22 23 22 19 0 33 -23 18 -28 -7 -2
-12 -8 -12 -13 0 -12 27 -12 35 1 9 14 -13 50 -30 50 -8 0 -15 5 -15 10 0 6
12 4 29 -4 19 -10 31 -12 38 -5 8 8 18 7 33 -1 l21 -11 -27 -36 c-14 -19 -22
-38 -18 -43 5 -5 20 7 34 25 27 37 36 40 60 25 12 -7 13 -13 3 -27 -6 -10 -16
-17 -22 -16 -23 6 -10 -27 17 -39 19 -10 26 -20 24 -36 -4 -30 6 -28 45 10
l33 32 40 -39 c42 -41 57 -75 17 -37 -13 12 -29 22 -35 22 -18 0 -15 -41 5
-62 9 -10 13 -21 10 -24 -9 -9 -37 16 -47 41 -7 15 -9 16 -9 4 -1 -24 38 -69
60 -69 26 0 24 28 -3 57 -28 30 -15 43 15 14 14 -12 31 -19 39 -16 10 4 29
-10 57 -42 22 -26 41 -51 41 -55 0 -9 -97 -4 -106 5 -10 9 6 27 25 27 9 0 23
-6 30 -12 11 -11 11 -9 2 10 -17 32 -65 27 -69 -7 -5 -30 35 -66 55 -49 16 13
53 1 53 -18 0 -20 -27 -29 -45 -14 -18 15 -20 -1 -3 -18 17 -17 48 -15 53 3
16 51 14 49 35 30 28 -25 25 -7 -7 40 -92 138 -263 285 -428 368 -116 58 -225
101 -225 88z m89 -40 c19 -12 6 -41 -17 -41 -26 0 -33 10 -21 31 11 21 18 23
38 10z m311 -176 c10 -12 10 -18 0 -30 -12 -14 -15 -14 -31 1 -14 13 -16 20
-8 31 15 17 24 17 39 -2z"/>
<path d="M1824 3686 c-119 -52 -157 -74 -249 -142 -73 -54 -233 -214 -254
-252 -12 -23 -3 -30 15 -12 12 12 44 3 44 -11 0 -5 9 -9 20 -9 13 0 20 7 20
18 0 10 5 23 12 30 7 7 8 12 2 12 -5 0 -15 -5 -21 -11 -12 -12 -43 -6 -43 8 0
4 8 18 18 31 l17 22 35 -25 c52 -38 72 -30 25 10 l-40 34 35 36 c34 35 67 51
37 17 -21 -23 -22 -42 -3 -42 8 0 16 -7 20 -15 3 -8 16 -14 28 -14 17 1 18 2
6 6 -10 2 -18 13 -18 24 0 24 29 37 40 18 5 -7 12 -10 15 -7 12 12 -6 28 -30
28 -13 0 -28 -8 -34 -17 -5 -10 -13 -14 -18 -10 -4 5 2 17 15 27 12 10 20 25
17 33 -3 7 2 20 11 28 14 12 20 9 45 -19 16 -18 36 -32 46 -32 13 0 10 8 -15
33 -18 18 -32 38 -32 44 0 6 19 23 41 38 31 20 44 24 53 15 8 -8 4 -16 -16
-32 -33 -23 -36 -38 -7 -38 11 0 18 4 15 9 -3 5 1 14 9 21 13 10 19 9 35 -5
32 -29 35 -10 4 30 -27 36 -28 38 -9 51 24 18 40 13 40 -12 0 -12 8 -20 23
-22 26 -4 28 9 7 42 -14 22 -14 24 2 30 12 5 22 1 30 -11 30 -45 42 -58 48
-51 4 3 -1 20 -9 37 -21 40 -20 46 9 59 21 10 27 9 32 -4 3 -9 0 -20 -8 -24
-10 -7 -6 -12 15 -19 15 -6 36 -16 47 -21 11 -6 19 -7 19 -2 0 6 -8 12 -18 15
-22 5 -39 67 -21 78 6 3 7 9 2 12 -5 3 -54 -14 -109 -37z"/>
<path d="M3272 3539 c2 -7 10 -15 17 -17 8 -3 12 1 9 9 -2 7 -10 15 -17 17 -8
3 -12 -1 -9 -9z"/>
<path d="M3515 3531 c-3 -6 21 -45 55 -87 33 -42 78 -102 100 -134 28 -41 45
-57 55 -53 18 6 16 11 -72 134 -65 92 -128 155 -138 140z"/>
<path d="M3668 3483 c140 -168 287 -473 336 -696 l18 -79 351 8 c194 3 353 7
354 8 3 2 -121 82 -372 241 -217 137 -379 263 -631 492 -45 40 -84 73 -88 73
-4 0 11 -21 32 -47z"/>
<path d="M1118 3391 c-37 -49 -81 -114 -98 -144 -25 -45 -28 -56 -15 -60 9 -4
21 3 31 21 35 57 125 188 150 219 23 28 26 53 6 53 -4 0 -37 -40 -74 -89z"/>
<path d="M2280 3385 c0 -12 17 -15 93 -15 50 -1 125 -7 165 -14 68 -12 97 -6
76 14 -16 14 -139 30 -237 30 -80 0 -97 -3 -97 -15z"/>
<path d="M2076 3350 c-100 -34 -186 -79 -186 -97 0 -19 9 -17 91 21 41 19 109
45 151 58 74 22 95 40 52 45 -10 1 -59 -11 -108 -27z"/>
<path d="M2690 3331 c0 -12 6 -21 13 -21 22 0 182 -84 225 -119 38 -30 62 -34
62 -11 0 14 -143 108 -204 135 -86 38 -96 39 -96 16z"/>
<path d="M1261 3197 c-7 -10 -20 -17 -28 -17 -26 0 -73 -30 -73 -47 0 -12 6
-9 25 11 21 23 55 36 55 21 0 -3 -11 -28 -26 -56 -28 -56 -84 -221 -84 -247 1
-15 2 -15 15 1 9 13 20 17 34 12 22 -7 61 24 61 49 0 7 9 16 20 19 33 9 23 24
-25 36 -44 11 -53 23 -37 49 7 10 15 10 36 2 23 -8 31 -6 52 15 31 31 30 42
-6 63 -58 33 -28 57 32 26 20 -10 34 -12 40 -6 7 7 -3 17 -30 31 -22 11 -42
28 -44 37 -3 16 -4 16 -17 1z m7 -113 c28 -20 28 -34 0 -34 -32 0 -52 15 -45
34 8 20 17 20 45 0z m-53 -159 c0 -26 -3 -30 -25 -27 -32 5 -32 5 -24 36 5 20
12 26 28 24 16 -2 21 -10 21 -33z"/>
<path d="M1740 3151 c-36 -32 -86 -85 -112 -119 -39 -48 -45 -62 -34 -71 11
-9 22 0 54 43 23 29 73 82 111 117 68 61 86 89 58 89 -7 0 -41 -26 -77 -59z"/>
<path d="M3758 3184 c-4 -3 13 -47 37 -97 24 -51 52 -119 63 -152 12 -35 27
-61 36 -63 9 -2 16 1 16 7 0 21 -54 159 -91 234 -37 72 -48 85 -61 71z"/>
<path d="M2155 3167 c-12 -10 -16 -22 -13 -40 l5 -27 -108 0 c-90 0 -109 -3
-109 -15 0 -8 7 -15 15 -15 11 0 15 -11 15 -39 0 -45 36 -83 70 -74 13 4 20 0
20 -10 0 -8 7 -20 15 -27 13 -11 15 -2 15 69 l0 82 33 -3 32 -3 3 -72 c2 -56
6 -73 17 -73 12 0 15 16 15 75 l0 75 34 0 c26 0 35 -5 39 -21 4 -15 0 -23 -14
-26 -10 -3 -19 -10 -19 -16 0 -17 74 -109 78 -97 2 6 -5 21 -17 34 -13 14 -17
26 -12 32 5 5 11 27 13 49 l3 40 80 0 c75 0 80 -1 83 -22 4 -26 -5 -28 -32 -8
-26 20 -49 19 -69 -3 -23 -25 -21 -39 8 -68 21 -21 31 -24 60 -18 28 5 35 3
35 -10 0 -9 7 -16 15 -16 12 0 15 15 15 75 l0 75 65 0 c37 0 65 -4 65 -10 0
-5 -12 -10 -27 -10 -44 0 -61 -15 -45 -40 9 -15 10 -26 2 -40 -8 -14 -8 -26 0
-40 11 -21 59 -50 82 -50 7 0 -3 8 -22 18 -54 27 -50 82 6 82 26 0 30 -10 13
-27 -17 -17 -1 -37 17 -22 8 6 14 17 14 24 0 20 -35 45 -63 45 -15 0 -27 5
-27 10 0 6 18 10 40 10 36 0 40 3 40 25 0 24 2 25 65 25 63 0 65 -1 65 -25 0
-23 -4 -25 -40 -25 -44 0 -61 -19 -40 -45 16 -19 30 -19 30 0 0 9 9 15 25 15
21 0 25 -5 25 -29 0 -16 7 -34 15 -41 13 -11 15 -2 15 69 0 67 3 81 16 81 9 0
14 6 12 13 -4 9 -82 13 -336 15 -323 2 -332 3 -332 22 0 28 43 37 76 15 38
-24 40 -12 4 19 -35 29 -57 32 -85 13z m-105 -132 c0 -24 -6 -37 -19 -45 -34
-18 -41 -11 -41 35 0 43 1 45 30 45 28 0 30 -3 30 -35z m380 -25 c13 -9 12
-13 -9 -30 -28 -24 -44 -25 -61 -5 -26 31 32 60 70 35z"/>
<path d="M3530 3142 c0 -18 -10 -28 -40 -40 -22 -9 -40 -23 -40 -29 0 -16 0
-16 43 2 20 8 42 15 50 15 8 0 25 -32 40 -77 30 -87 31 -93 17 -93 -5 0 -10 6
-10 14 0 7 -6 19 -14 25 -8 7 -12 21 -9 31 11 43 -46 69 -67 31 -13 -26 -13
-52 1 -28 5 9 19 17 29 17 22 0 39 -22 22 -28 -17 -5 -15 -29 3 -36 24 -9 17
-35 -10 -42 -14 -3 -25 -13 -25 -21 0 -9 7 -12 18 -9 58 16 85 17 93 5 30 -48
-18 127 -54 197 -17 34 -9 58 17 48 19 -7 56 -73 57 -101 0 -10 3 -13 6 -6 7
20 -16 80 -44 114 -24 28 -27 29 -43 14 -17 -15 -19 -15 -29 2 -9 16 -10 16
-11 -5z"/>
<path d="M3043 3119 c-10 -9 -1 -24 38 -67 27 -30 72 -89 100 -132 34 -52 56
-77 65 -73 12 4 9 15 -12 52 -42 72 -78 122 -131 179 -38 42 -51 51 -60 41z"/>
<path d="M922 3052 c-38 -86 -85 -239 -77 -252 14 -22 24 -5 55 92 17 56 43
126 56 156 22 51 24 72 5 72 -5 0 -22 -31 -39 -68z"/>
<path d="M3662 2975 c0 -16 2 -22 5 -12 2 9 2 23 0 30 -3 6 -5 -1 -5 -18z"/>
<path d="M1326 2946 c3 -15 2 -32 -2 -39 -5 -7 -1 -4 9 7 20 21 19 47 -1 54
-9 3 -11 -3 -6 -22z"/>
<path d="M1301 2934 c0 -11 3 -14 6 -6 3 7 2 16 -1 19 -3 4 -6 -2 -5 -13z"/>
<path d="M1494 2818 l-39 -83 -167 -3 c-101 -1 -168 -6 -168 -12 0 -12 339
-13 358 -1 17 10 83 161 76 173 -11 18 -22 5 -60 -74z"/>
<path d="M3542 2801 c2 -7 7 -12 11 -12 12 1 9 15 -3 20 -7 2 -11 -2 -8 -8z"/>
<path d="M3913 2792 c-18 -11 -1 -66 21 -70 15 -3 17 1 11 30 -9 40 -16 50
-32 40z"/>
<path d="M3266 2772 c-3 -4 1 -19 7 -33 13 -24 13 -24 195 -27 119 -2 182 1
182 8 0 6 -61 10 -170 10 l-170 0 -6 25 c-6 24 -27 34 -38 17z"/>
<path d="M870 2720 c0 -6 35 -10 85 -10 50 0 85 4 85 10 0 6 -35 10 -85 10
-50 0 -85 -4 -85 -10z"/>
<path d="M1550 2720 c0 -6 67 -10 180 -10 113 0 180 4 180 10 0 6 -67 10 -180
10 -113 0 -180 -4 -180 -10z"/>
<path d="M1990 2720 c0 -6 65 -10 175 -10 110 0 175 4 175 10 0 6 -65 10 -175
10 -110 0 -175 -4 -175 -10z"/>
<path d="M2420 2720 c0 -6 67 -10 180 -10 113 0 180 4 180 10 0 6 -67 10 -180
10 -113 0 -180 -4 -180 -10z"/>
<path d="M2860 2720 c0 -6 65 -10 175 -10 110 0 175 4 175 10 0 6 -65 10 -175
10 -110 0 -175 -4 -175 -10z"/>
<path d="M3732 2718 c3 -9 32 -14 86 -16 68 -2 82 0 82 13 0 12 -15 15 -86 15
-64 0 -85 -3 -82 -12z"/>
<path d="M1020 2370 l0 -210 55 0 55 0 0 79 0 78 103 5 c152 8 205 38 214 120
3 32 -1 52 -17 76 -33 53 -68 62 -250 62 l-160 0 0 -210z m274 136 c39 -16 52
-45 36 -76 -16 -29 -50 -40 -131 -40 l-69 0 0 65 0 65 65 0 c36 0 81 -6 99
-14z"/>
<path d="M1550 2370 l0 -210 50 0 50 0 0 162 c0 89 3 158 8 154 4 -4 30 -76
58 -159 l51 -152 54 -3 54 -3 49 148 c27 81 52 155 57 163 5 9 9 -55 9 -147
l0 -163 55 0 55 0 0 210 0 210 -87 0 -88 0 -48 -140 c-27 -77 -53 -140 -58
-140 -5 0 -9 6 -9 13 0 6 -21 69 -47 140 l-48 127 -82 0 -83 0 0 -210z"/>
<path d="M2220 2370 l0 -210 50 0 50 0 0 79 0 78 110 6 c159 8 210 41 210 136
0 24 -8 49 -22 66 -37 47 -72 55 -243 55 l-155 0 0 -210z m269 137 c33 -17 45
-39 38 -69 -9 -34 -50 -48 -138 -48 l-69 0 0 58 c0 32 3 62 7 65 11 12 137 7
162 -6z"/>
<path d="M2740 2370 l0 -210 55 0 55 0 2 160 3 160 55 -160 55 -160 51 0 51 0
47 138 c73 212 71 211 74 25 l2 -163 50 0 50 0 0 210 0 210 -84 0 c-63 0 -85
-4 -89 -14 -3 -8 -24 -67 -47 -132 -23 -66 -45 -122 -49 -127 -4 -4 -30 54
-58 130 l-50 138 -87 3 -86 3 0 -211z"/>
<path d="M3410 2370 l0 -210 201 0 200 0 -3 33 -3 32 -142 3 -143 3 0 174 0
175 -55 0 -55 0 0 -210z"/>
<path d="M890 2040 c0 -6 37 -10 90 -10 53 0 90 4 90 10 0 6 -37 10 -90 10
-53 0 -90 -4 -90 -10z"/>
<path d="M1150 2040 c0 -6 62 -11 152 -12 l151 -3 27 -65 c21 -51 76 -153 97
-179 2 -3 8 0 13 5 7 7 -7 43 -40 109 -27 54 -50 111 -50 127 l0 28 -175 0
c-107 0 -175 -4 -175 -10z"/>
<path d="M1580 2040 c0 -6 67 -10 180 -10 113 0 180 4 180 10 0 6 -67 10 -180
10 -113 0 -180 -4 -180 -10z"/>
<path d="M2020 2040 c0 -6 65 -10 175 -10 110 0 175 4 175 10 0 6 -65 10 -175
10 -110 0 -175 -4 -175 -10z"/>
<path d="M2450 2040 c0 -6 67 -10 180 -10 113 0 180 4 180 10 0 6 -67 10 -180
10 -113 0 -180 -4 -180 -10z"/>
<path d="M2890 2040 c0 -6 65 -10 175 -10 110 0 175 4 175 10 0 6 -65 10 -175
10 -110 0 -175 -4 -175 -10z"/>
<path d="M3322 2038 c6 -16 347 -19 351 -3 1 6 -64 11 -176 13 -141 2 -178 0
-175 -10z"/>
<path d="M3760 2035 c0 -12 15 -15 79 -15 44 0 87 3 96 6 33 13 -9 24 -92 24
-67 0 -83 -3 -83 -15z"/>
<path d="M187 2031 l-107 -6 82 -50 c176 -107 437 -285 523 -357 50 -41 158
-141 242 -221 84 -81 154 -147 157 -147 3 0 -22 37 -54 83 -63 86 -170 286
-214 399 -14 37 -41 120 -60 185 l-34 118 -214 1 c-117 0 -261 -2 -321 -5z"/>
<path d="M824 2004 c9 -45 22 -63 35 -48 12 12 -10 76 -28 82 -11 4 -12 -3 -7
-34z"/>
<path d="M3234 1918 c-30 -59 -96 -161 -127 -195 -12 -13 -17 -29 -13 -39 6
-16 8 -16 25 1 45 40 176 260 165 277 -11 18 -25 6 -50 -44z"/>
<path d="M3876 1867 c-15 -49 -41 -119 -57 -155 -33 -74 -35 -82 -15 -82 18 0
58 84 97 203 33 100 34 113 16 120 -10 4 -22 -21 -41 -86z"/>
<path d="M866 1872 c-13 -22 106 -312 129 -312 24 0 22 12 -11 79 -19 37 -47
105 -62 151 -27 79 -43 103 -56 82z"/>
<path d="M2212 1858 c3 -7 14 -14 26 -16 19 -3 62 -49 62 -66 0 -3 -39 -6 -86
-6 -54 0 -83 -4 -79 -10 3 -5 17 -10 31 -10 20 0 24 -5 24 -30 0 -20 -5 -30
-15 -30 -8 0 -15 -5 -15 -11 0 -16 71 -102 78 -95 3 4 -5 17 -18 31 -19 20
-21 27 -10 40 9 11 16 12 26 4 7 -6 22 -8 34 -4 16 5 20 2 20 -18 0 -14 7 -30
15 -37 12 -10 15 -1 17 67 l3 78 80 0 c75 0 80 -1 83 -22 4 -25 -7 -30 -25
-12 -15 15 -74 7 -87 -13 -8 -13 -6 -24 11 -45 17 -23 28 -28 61 -26 32 1 41
-2 45 -18 3 -10 10 -19 16 -19 7 0 11 29 11 80 l0 80 30 0 30 0 0 -74 c0 -56
4 -75 15 -80 13 -4 15 7 15 70 0 57 4 76 15 80 41 16 -11 24 -150 24 l-154 0
-28 39 c-32 46 -91 81 -81 49z m78 -138 c0 -23 -6 -33 -22 -39 -28 -11 -48 3
-48 34 0 29 8 35 42 35 25 0 28 -4 28 -30z m174 -26 c21 -8 20 -24 -1 -40 -24
-18 -48 -17 -63 1 -24 29 20 56 64 39z"/>
<path d="M1634 1718 c-8 -13 139 -160 205 -203 33 -23 44 -26 51 -15 6 9 -9
26 -52 57 -33 25 -88 73 -123 109 -35 35 -66 64 -69 64 -3 0 -8 -5 -12 -12z"/>
<path d="M3381 1656 c-102 -138 -244 -265 -393 -352 -65 -38 -89 -62 -49 -49
21 6 44 -22 39 -47 -2 -7 7 -14 20 -16 14 -2 22 2 22 11 0 22 31 30 50 12 31
-28 32 -15 0 39 l-31 55 38 25 c47 33 63 33 34 2 l-23 -24 21 -21 c12 -12 21
-25 21 -31 0 -5 7 -10 15 -10 12 0 13 4 6 18 -6 11 -6 24 0 35 13 23 29 22 29
-3 0 -11 5 -20 10 -20 6 0 10 9 10 19 0 28 -37 37 -61 15 -15 -13 -19 -14 -19
-3 0 8 9 20 19 26 12 8 17 19 14 31 -2 10 2 24 10 30 11 10 20 4 46 -28 18
-22 39 -40 48 -40 11 0 4 13 -22 46 l-38 45 34 35 c18 19 37 34 41 34 20 0 19
-33 -1 -54 -23 -24 -19 -36 10 -36 11 0 16 5 13 13 -3 8 1 19 9 26 11 9 17 8
27 -4 7 -8 19 -15 27 -15 9 0 -1 18 -26 47 -39 44 -40 47 -25 65 13 14 20 15
31 7 7 -6 13 -18 13 -25 0 -15 35 -19 44 -6 3 5 -8 19 -24 31 -33 24 -38 39
-15 47 8 3 32 -8 55 -26 56 -44 66 -27 12 20 -41 34 -43 39 -30 59 15 24 43
24 43 -1 0 -26 8 -28 56 -19 28 6 35 9 19 10 -25 2 -73 43 -82 71 -3 9 -19 -6
-47 -44z m-341 -398 c0 -4 -8 -12 -18 -17 -14 -7 -21 -5 -31 11 -12 19 -11 23
5 35 16 12 21 11 31 -4 7 -9 13 -20 13 -25z"/>
<path d="M1312 1676 c2 -8 -4 -21 -13 -28 -27 -21 -32 -54 -12 -73 16 -17 16
-19 -7 -37 -20 -16 -21 -21 -10 -28 10 -6 12 -12 4 -20 -16 -16 -44 11 -54 50
l-8 35 -1 -36 c-2 -65 70 -109 77 -47 2 18 18 40 46 63 49 40 52 41 60 18 4
-10 -2 -25 -15 -39 -23 -25 -22 -62 3 -77 12 -8 24 -5 51 16 50 38 59 15 12
-33 -21 -21 -35 -43 -31 -48 3 -6 23 7 45 29 21 22 45 38 52 37 8 -2 12 3 10
12 -2 8 -3 33 -2 56 1 26 -4 45 -14 54 -12 10 -15 10 -15 -3 0 -9 5 -19 10
-22 12 -7 14 -55 2 -55 -10 0 -87 81 -136 143 -37 47 -60 60 -54 33z m38 -51
c16 -19 -3 -45 -32 -45 -27 0 -35 30 -13 46 24 18 30 17 45 -1z m86 -96 c9
-15 -41 -64 -55 -55 -8 5 -4 17 11 36 25 32 33 35 44 19z"/>
<path d="M2971 1589 c-24 -21 -81 -61 -127 -87 -74 -42 -105 -72 -73 -72 45 0
287 169 274 190 -11 18 -29 10 -74 -31z"/>
<path d="M3716 1509 c-16 -29 -58 -90 -93 -137 -47 -63 -61 -88 -53 -96 9 -8
20 -2 42 24 48 57 168 242 162 251 -12 20 -31 6 -58 -42z"/>
<path d="M1041 1491 c-11 -7 -7 -18 19 -57 51 -75 171 -224 180 -224 27 0 14
28 -47 102 -37 46 -83 107 -102 136 -18 28 -34 52 -35 52 0 0 -7 -4 -15 -9z"/>
<path d="M1956 1463 c-9 -23 165 -91 277 -108 39 -6 47 -5 47 9 0 9 -11 18
-27 21 -103 22 -167 40 -225 64 -55 23 -68 26 -72 14z"/>
<path d="M1684 1412 c-6 -4 -14 -15 -17 -26 -6 -15 -10 -16 -22 -6 -12 10 -15
10 -15 -3 0 -9 5 -19 10 -22 7 -4 3 -17 -8 -33 -32 -45 -43 -70 -33 -76 5 -4
22 14 38 39 16 27 34 44 43 42 15 -3 15 -10 3 -69 -4 -20 0 -29 17 -38 12 -6
19 -18 16 -25 -3 -8 -1 -17 4 -20 5 -3 22 17 37 44 30 55 49 61 46 15 -3 -47
6 -72 26 -79 11 -3 22 -16 24 -28 3 -17 8 -11 27 31 21 49 25 53 49 47 14 -4
28 -8 30 -10 7 -8 -9 -36 -18 -30 -17 10 -21 -12 -10 -46 15 -43 33 -64 24
-28 -9 37 29 99 56 92 17 -5 20 -11 15 -32 -16 -69 -18 -91 -9 -91 6 0 17 24
25 53 8 29 19 51 26 49 17 -3 15 18 -3 24 -8 4 -15 16 -15 28 0 44 -57 65 -67
25 -8 -30 -45 -20 -168 42 -121 60 -139 73 -132 94 9 21 37 19 64 -7 31 -29
30 -8 -2 26 -24 26 -41 32 -61 18z m66 -122 c22 -14 0 -44 -34 -48 -30 -4 -30
-2 -14 33 12 27 24 31 48 15z m119 -59 c17 -11 6 -47 -16 -55 -26 -10 -38 9
-25 39 12 27 19 30 41 16z m169 -14 c3 -14 -1 -18 -20 -15 -12 2 -24 11 -26
21 -3 14 1 18 20 15 12 -2 24 -11 26 -21z"/>
<path d="M2605 1404 c-27 -8 -94 -17 -147 -21 -87 -5 -98 -8 -98 -24 0 -22 24
-24 139 -9 102 13 191 40 191 56 0 17 -20 17 -85 -2z"/>
<path d="M1510 1383 c0 -12 63 -53 69 -47 4 3 -7 17 -22 30 -28 24 -47 31 -47
17z"/>
<path d="M1790 1340 c0 -5 7 -10 15 -10 8 0 15 5 15 10 0 6 -7 10 -15 10 -8 0
-15 -4 -15 -10z"/>
<path d="M2811 1224 c-66 -28 -233 -65 -326 -71 l-94 -6 -41 37 c-34 31 -47
37 -78 34 -33 -3 -37 -6 -37 -30 1 -22 -4 -28 -20 -28 -19 -1 -19 -1 -2 -14
12 -10 17 -28 17 -69 0 -76 16 -80 24 -7 l7 60 69 0 70 0 0 -30 c0 -31 -39
-68 -59 -56 -16 10 -1 36 20 36 10 0 19 5 19 10 0 6 -21 10 -47 10 -40 -1 -45
-3 -33 -13 8 -7 20 -21 26 -32 7 -13 22 -20 40 -20 16 0 34 -7 41 -15 7 -8 13
-13 13 -10 1 3 4 30 6 60 3 30 6 55 7 56 1 1 32 5 70 9 l67 7 0 -30 c0 -29
-26 -62 -48 -62 -20 0 -13 32 8 37 30 8 24 23 -9 23 -59 0 -64 -9 -26 -48 32
-34 37 -36 57 -23 16 10 23 10 26 2 2 -6 8 -11 14 -11 6 0 8 23 6 57 l-3 57
55 13 c42 9 56 9 62 0 5 -8 -4 -14 -30 -17 -29 -4 -38 -10 -40 -27 -4 -30 41
-61 63 -43 12 10 18 10 30 0 22 -18 26 -9 15 31 -18 62 -14 73 37 91 26 9 50
14 53 11 3 -3 0 -8 -6 -10 -6 -2 -20 -10 -30 -17 -16 -12 -16 -16 -4 -31 10
-12 23 -15 47 -12 40 7 43 -7 6 -27 -25 -14 -26 -15 -7 -16 12 0 32 9 45 20
24 20 24 20 5 35 -23 17 -42 19 -51 5 -9 -15 -25 -12 -25 4 0 8 12 17 26 20
20 5 25 12 21 26 -3 11 -1 20 4 20 5 0 9 5 9 10 0 14 -29 12 -69 -6z m-464
-49 l28 -24 -57 -1 c-58 0 -74 9 -64 35 9 24 62 18 93 -10z m368 -55 c9 -15
-14 -40 -36 -40 -24 0 -33 18 -19 35 14 17 46 20 55 5z"/>
<path d="M3445 1169 c-28 -28 -83 -75 -122 -106 -72 -55 -82 -67 -64 -77 19
-12 277 206 265 225 -11 18 -31 8 -79 -42z"/>
<path d="M2367 1204 c-8 -8 1 -24 14 -24 5 0 9 7 9 15 0 15 -12 20 -23 9z"/>
<path d="M1305 1160 c-3 -5 -3 -14 0 -20 17 -27 247 -200 267 -200 26 0 -3 34
-70 82 -42 31 -100 76 -129 102 -55 49 -59 51 -68 36z"/>
<path d="M2096 1101 c14 -13 84 -23 84 -13 0 11 -34 22 -69 22 -15 0 -21 -4
-15 -9z"/>
<path d="M3105 921 c-38 -21 -107 -53 -152 -72 -61 -27 -79 -39 -73 -49 7 -11
21 -8 77 15 99 41 220 103 228 116 18 28 -16 24 -80 -10z"/>
<path d="M1647 913 c-4 -3 -7 -9 -7 -13 0 -17 312 -145 324 -133 16 16 2 30
-41 41 -27 7 -95 35 -152 62 -108 52 -114 54 -124 43z"/>
<path d="M2680 770 c-47 -10 -115 -21 -152 -25 -49 -5 -68 -11 -68 -21 0 -17
43 -18 145 -4 123 17 204 40 198 56 -6 17 -13 16 -123 -6z"/>
<path d="M2040 756 c0 -16 16 -20 125 -36 92 -13 221 -10 218 5 -2 6 -44 13
-95 17 -51 4 -120 12 -154 18 -80 13 -94 13 -94 -4z"/>
</g>
</svg>
